<?xml version="1.0" encoding="UTF-8" standalone="no"?>
<svg
   xmlns:dc="http://purl.org/dc/elements/1.1/"
   xmlns:cc="http://creativecommons.org/ns#"
   xmlns:rdf="http://www.w3.org/1999/02/22-rdf-syntax-ns#"
   xmlns:svg="http://www.w3.org/2000/svg"
   xmlns="http://www.w3.org/2000/svg"
   xmlns:sodipodi="http://sodipodi.sourceforge.net/DTD/sodipodi-0.dtd"
   xmlns:inkscape="http://www.inkscape.org/namespaces/inkscape"
   width="105"
   height="108"
   viewBox="0 0 105 108"
   version="1.1"
   id="svg2"
   inkscape:version="0.91 r13725"
   sodipodi:docname="sisyou.svg">
  <metadata
     id="metadata13">
    <rdf:RDF>
      <cc:Work
         rdf:about="">
        <dc:format>image/svg+xml</dc:format>
        <dc:type
           rdf:resource="http://purl.org/dc/dcmitype/StillImage" />
      </cc:Work>
    </rdf:RDF>
  </metadata>
  <defs
     id="defs11" />
  <sodipodi:namedview
     pagecolor="#ffffff"
     bordercolor="#666666"
     borderopacity="1"
     objecttolerance="10"
     gridtolerance="10"
     guidetolerance="10"
     inkscape:pageopacity="0"
     inkscape:pageshadow="2"
     inkscape:window-width="688"
     inkscape:window-height="600"
     id="namedview9"
     showgrid="false"
     inkscape:zoom="2.1851852"
     inkscape:cx="52.5"
     inkscape:cy="54"
     inkscape:window-x="513"
     inkscape:window-y="340"
     inkscape:window-maximized="0"
     inkscape:current-layer="svg2" />
  <!--?xml version="1.0" encoding="utf-8"?-->
  <!-- Generator: Adobe Illustrator 15.0.2, SVG Export Plug-In . SVG Version: 6.00 Build 0)  -->
  <svg
     version="1.1"
     id="Ebene_1"
     x="0px"
     y="0px"
     width="100px"
     height="100px"
     viewBox="0 0 100 100"
     enable-background="new 0 0 100 100"
     xml:space="preserve">
<circle
   fill="#B2B2B2"
   cx="50"
   cy="50"
   r="50"
   id="circle5" /></svg>  <path
     d="m 49.2363,5.2698365 c -2.40684,-0.025359 -4.549502,0.4038923 -4.761471,0.9538923 -0.211969,0.55 -0.267736,18.7675922 -0.123927,40.4835382 l 0.261471,39.483538 4.5,-2.05e-4 4.5,-2.04e-4 0,-40.437226 0,-40.4372258 -4.376073,-0.046108 z m -9.373927,0.5742124 c -0.1375,0.066176 -2.166363,0.853676 -4.508585,1.75 l -4.258585,1.6296799 0.0063,36.5000002 0.0063,36.5 4.466232,1.5 4.466232,1.5 0.03602,-39.75 c 0.01988,-21.8625 -0.07641,-39.6958562 -0.213914,-39.6296801 z m 22.788272,1.8796799 -4.466232,-1.5 0,39.5000002 0,39.5 4.466232,-1.5 4.466232,-1.5 0,-36.5 0,-36.5000002 -4.466232,-1.5 z M 26.862373,11.687624 c -0.1375,-0.01986 -2.327726,1.892642 -4.867169,4.25 -2.539443,2.357358 -5.732023,6.086105 -7.094621,8.286105 -1.362598,2.2 -3.278106,6.475 -4.256685,9.5 -0.9785791,3.025 -1.7792342,8.425 -1.7792342,12 0,3.575 0.7942931,8.975 1.7650952,12 0.970803,3.025 3.389037,7.93116 5.373855,10.902578 1.984817,2.971419 5.296259,6.683919 7.358759,8.25 l 3.75,2.847422 -0.156128,-5.75 c -0.115968,-4.270921 -0.741836,-6.521693 -2.433098,-8.75 -1.252334,-1.65 -3.197193,-5.025 -4.32191,-7.5 -1.478148,-3.252743 -2.04494,-6.578762 -2.04494,-12 0,-5.421238 0.566792,-8.747257 2.04494,-12 1.124717,-2.475 3.069576,-5.85 4.32191,-7.5 1.691262,-2.228307 2.31713,-4.479079 2.433098,-8.75 0.08587,-3.1625 0.04363,-5.766247 -0.09387,-5.786105 z m 48,2.883526 -3.75,-2.847421 0.156128,5.75 c 0.115968,4.270921 0.741836,6.521693 2.433098,8.75 1.252334,1.65 3.197193,5.025 4.32191,7.5 1.478148,3.252743 2.04494,6.578762 2.04494,12 0,5.421238 -0.566792,8.747257 -2.04494,12 -1.124717,2.475 -3.069576,5.85 -4.32191,7.5 -1.691262,2.228307 -2.31713,4.479079 -2.433098,8.75 l -0.156128,5.75 3.75,-2.847422 c 2.0625,-1.566081 5.373942,-5.278581 7.358759,-8.25 1.984818,-2.971418 4.403052,-7.877578 5.373855,-10.902578 0.970802,-3.025 1.765095,-8.425 1.765095,-12 0,-3.575 -0.794293,-8.975 -1.765095,-12 -0.970803,-3.025 -3.389037,-7.93116 -5.373855,-10.902579 -1.984817,-2.971418 -5.296259,-6.683918 -7.358759,-8.25 z"
     id="path7"
     inkscape:connector-curvature="0"
     style="fill:#000000" />
</svg>
